PathFileType	4	(X/Y/Z)	C:/Users/beibeiliu/ov580/test_trc/User2\sequence.13_training_dense_left.trc
DataRate	CameraRate	NumFrames	NumMarkers	Units	OrigDataRate	OrigDataStartFrame	OrigNumFrames
120	120	16	19	mm	120	211	336
Frame#	Time	ThumbCMC			ThumbMCP			ThumbIP			ThumbTip			IndexMCP			IndexPIP			IndexTip			MiddleMCP			MiddlePIP			MiddleTip			RingMCP			RingPIP			RingTip			PinkyMCP			PinkyPIP			PinkyTip			BackHand1			BackHand2			BackHand3	
		X0	Y0	Z0	X1	Y1	Z1	X2	Y2	Z2	X3	Y3	Z3	X4	Y4	Z4	X5	Y5	Z5	X6	Y6	Z6	X7	Y7	Z7	X8	Y8	Z8	X9	Y9	Z9	X10	Y10	Z10	X11	Y11	Z11	X12	Y12	Z12	X13	Y13	Z13	X14	Y14	Z14	X15	Y15	Z15	X16	Y16	Z16	X17	Y17	Z17	X18	Y18	Z18	
210	1.75	-86.1189	-21.2601	96.3112	-80.4082	-46.3306	72.8857	-85.8958	-62.9947	41.2556	-102.613	-71.8385	18.0224	-99.8199	19.316	28.7144	-96.3	19.5812	-4.47344	-103.144	4.567	-29.0406	-136.295	25.8556	26.7986	-141.908	24.843	-6.10517	-149.898	-2.33659	-37.5015	-159.71	-1.57555	27.022	-155.937	-26.4235	10.4241	-142.446	-48.5994	36.9032	-176.349	-19.8241	43.857	-163.455	-52.823	39.734	-143.933	-52.3561	66.1994	-148.087	14.2052	90.7251	-146.619	10.4091	124.011	-112.844	14.1365	97.6312	
211	1.75833	-88.9964	-23.7675	100.627	-81.5798	-49.8468	75.3777	-82.7522	-72.9046	47.1254	-99.3055	-83.387	30.7404	-101.648	7.61223	25.451	-101.009	4.44724	-4.14091	-104.482	-14.6348	-32.5962	-139.865	11.2928	24.9956	-144.673	5.19164	-9.23185	-151.127	-26.431	-35.5353	-161.177	-15.9987	24.0845	-156.64	-46.0185	13.5633	-141.767	-62.9464	43.7533	-174.978	-34.1778	43.1124	-162.563	-62.985	44.7384	-143.04	-61.9521	70.4019	-154.366	7.85626	85.3603	-150.531	9.45644	117.777	-112.76	12.5468	96.0266	
212	1.76667	-84.3144	-22.1831	105.042	-72.2037	-51.0755	88.0626	-76.733	-76.3431	59.7843	-91.9178	-91.2938	44.2496	-102.835	-5.65369	26.4404	-98.0529	-11.8008	-1.93729	-97.1436	-32.0391	-26.9343	-134.435	-5.20313	24.7823	-144.854	-19.4028	-9.48724	-142.125	-50.4232	-30.4399	-156.392	-30.1867	29.0468	-149.887	-62.642	20.7138	-137.531	-77.2199	47.0596	-170.737	-44.6219	51.5329	-156.999	-76.0757	53.3085	-143.216	-71.0008	81.339	-156.602	-0.637751	86.426	-154.33	8.45218	119.154	-121.145	6.88395	95.6644	
213	1.775	-89.5967	-19.3218	113.8	-68.5909	-50.3871	99.1737	-70.4193	-76.8297	75.1467	-80.9641	-98.0884	55.7298	-101.826	-16.7074	28.4486	-93.2879	-26.3201	3.46109	-93.9381	-45.9821	-17.2625	-134.278	-20.3199	22.5832	-136.171	-36.503	-4.1817	-136.236	-69.5596	-21.1248	-152.76	-44.1876	34.8219	-143.229	-76.1064	28.464	-127.998	-88.6401	56.1988	-164.747	-58.8449	56.3982	-147.013	-85.544	64.2422	-134.263	-75.2929	93.8542	-157.591	-7.95324	86.5205	-157.145	3.37389	118.133	-119.427	5.69179	99.8569	
214	1.78333	-87.6062	-16.4461	118.61	-67.9896	-47.3456	105.779	-63.4734	-76.7692	87.3871	-70.142	-97.7666	75.02	-96.6254	-21.6748	34.4794	-90.2538	-35.1633	10.3983	-81.88	-57.735	-10.3895	-128.284	-27.7628	30.6364	-123.874	-50.5632	-0.970276	-119.707	-82.6445	-13.9142	-147.297	-53.6429	41.1378	-137.397	-83.8323	36.8584	-121.598	-93.5947	70.5063	-159.654	-66.7156	62.6898	-139.796	-91.9088	76.2868	-129.346	-75.5397	104.301	-154.309	-10.9398	85.7567	-156	2.13644	118.089	-123.073	6.21505	99.7316	
215	1.79167	-87.8965	-14.6548	121.672	-64.549	-41.551	114.524	-55.2734	-72.1064	98.422	-58.6896	-93.9343	87.287	-95.3668	-23.1891	43.5364	-85.0755	-36.1272	17.2071	-76.1416	-58.5198	-0.473224	-124.946	-34.7457	32.1053	-118.191	-55.0636	7.99441	-108.543	-91.4977	-5.49404	-137.074	-60.9075	43.1109	-128.601	-89.7285	46.7621	-110.656	-93.8465	77.7971	-153.081	-74.5023	67.9847	-131.672	-93.8102	82.3587	-120.797	-74.2801	109.711	-153.562	-16.2057	89.5385	-155.918	3.38029	119.92	-121.735	5.61935	99.499	
216	1.8	-88.5415	-7.16617	128.003	-62.0006	-36.0369	118.203	-47.1279	-63.0538	106.721	-49.6951	-87.6095	92.0643	-90.3317	-21.3133	45.2243	-77.2756	-37.7441	18.6343	-66.1078	-57.5684	4.18785	-116.498	-34.489	37.527	-108.644	-61.0411	10.099	-99.7489	-96.0768	4.15075	-130.53	-61.3359	51.3346	-116.176	-91.5916	55.5601	-100.544	-89.7184	88.8223	-142.229	-75.6918	71.8714	-121.493	-93.2528	89.0247	-111.759	-70.6522	113.548	-148.677	-15.686	89.4233	-158.796	-1.99913	118.416	-122.882	5.67251	102.469	
217	1.80833	-85.156	-1.19216	125.873	-59.1279	-25.6914	121.151	-42.2641	-50.7328	112.586	-41.4736	-75.7677	98.8805	-86.8535	-19.0208	45.7924	-75.0752	-32.7268	24.7717	-57.0621	-54.6513	10.0675	-113.82	-37.9996	35.5052	-102.159	-61.6285	15.1003	-87.4346	-94.6901	10.1169	-121.447	-66.6395	53.7822	-106.367	-91.521	61.9492	-90.4972	-83.0973	97.0814	-135.047	-76.5162	78.835	-112.505	-92.6907	98.2461	-106.659	-64.8658	119.228	-148.517	-18.1516	89.8731	-159.484	-3.84167	120.42	-125.716	6.76419	102.618	
218	1.81667	-89.6914	5.70482	124.938	-60.5801	-12.9236	124.068	-38.2712	-37.8222	112.601	-32.253	-63.902	102.03	-89.0013	-15.9301	47.0766	-73.6448	-29.5464	25.7959	-52.1049	-50.5214	13.2519	-113.443	-38.9973	37.6123	-98.813	-62.5691	19.5509	-75.5378	-93.6625	16.914	-117.412	-65.8502	58.3577	-92.3887	-87.4166	67.6929	-84.3957	-79.3606	99.5315	-129.062	-78.2064	83.3088	-99.1498	-84.6083	101.721	-97.9162	-59.2517	123.554	-149.289	-21.2419	90.8684	-163.724	-6.73567	117.418	-131.785	9.67797	102.471	
219	1.825	-96.3082	12.6831	123.504	-62.1403	-0.414075	123.126	-35.4414	-24.6541	110.642	-28.6197	-47.7862	105.545	-91.5116	-12.0979	46.2185	-74.1471	-26.5367	24.6792	-46.8447	-47.2174	15.5031	-111.052	-38.588	40.8722	-94.1248	-63.2608	21.4644	-67.0249	-89.3024	21.7247	-107.887	-68.1567	59.1836	-84.3675	-81.0533	69.0378	-75.6574	-70.0847	104.839	-117.378	-75.6858	84.5983	-92.5634	-82.6037	105.189	-91.9264	-55.6047	122.603	-148.972	-26.818	91.1769	-165.133	-8.85129	115.675	-135.526	6.79624	98.5171	
220	1.83333	-102.483	20.8823	120.332	-67.2008	11.0126	119.378	-36.601	-6.58004	112.121	-27.7051	-33.5233	102.466	-94.65	-10.744	43.4897	-71.7159	-22.1562	22.2766	-47.4566	-36.2724	15.7094	-108.664	-35.4974	40.2128	-85.3166	-57.8335	19.9422	-53.3049	-79.6211	23.5206	-101.856	-66.0549	58.9216	-77.2165	-77.1705	71.9016	-69.6899	-61.2523	102.89	-107.832	-79.0076	85.6354	-82.8943	-75.426	104.282	-88.4979	-45.7251	121.597	-149.401	-33.2873	89.5814	-163.92	-14.4299	113.648	-139.345	7.43456	94.6901	
221	1.84167	-109.686	26.9385	116.587	-71.6363	20.6472	114.394	-39.8022	4.90517	105.897	-26.7709	-19.154	98.3301	-99.7296	-7.97767	41.1069	-77.6118	-15.7266	20.1428	-47.5441	-28.3378	14.4037	-108.572	-33.6699	36.1601	-81.9904	-55.6641	19.3407	-46.4095	-70.3404	24.6487	-97.5587	-58.9154	57.7618	-69.6381	-67.5282	70.9892	-66.4113	-50.4256	104.262	-100.742	-71.8992	82.6458	-76.1761	-67.2186	102.888	-86.8363	-41.1145	122.188	-146.996	-33.5372	87.4604	-171.172	-20.3404	115.762	-144.259	7.05336	90.9693	
222	1.85	-118.278	27.9065	111.643	-79.5049	28.5958	108.341	-46.1027	18.6609	98.8783	-30.5012	-6.30512	91.2471	-105.343	-2.89623	38.0032	-82.4679	-7.58777	16.1874	-52.3534	-15.8404	9.51394	-109.562	-32.2474	36.1723	-77.3141	-47.8602	16.4654	-41.216	-58.3446	23.0905	-92.7167	-55.0745	55.0259	-64.3687	-59.3111	67.3818	-62.2894	-42.5131	99.9263	-99.4304	-67.7952	82.9351	-70.2105	-57.6653	102.313	-85.8216	-33.7928	119.824	-147.176	-38.8456	86.6409	-168.007	-24.8443	113.147	-151.653	0.742316	92.5626	
223	1.85833	-127.115	30.5277	105.745	-92.6389	36.5061	105.44	-59.7462	28.9105	94.2116	-35.6464	12.3984	85.9312	-110.663	-3.26332	32.3664	-88.7506	-7.75603	10.7232	-56.3573	-11.2806	3.47165	-108.369	-36.4174	32.9782	-78.7304	-42.6312	13.1656	-38.9445	-45.0773	16.4912	-91.4467	-50.9601	53.1725	-59.8439	-48.6127	65.1407	-59.1799	-30.1331	92.2603	-88.5987	-63.1997	78.7066	-65.9523	-46.7946	94.8316	-82.8144	-25.7534	114.582	-146.693	-39.3484	83.8324	-168.139	-35.7731	109.875	-154.519	-4.71768	89.1386	
224	1.86667	-135.209	27.7708	100.495	-101.277	37.5012	94.1751	-67.0549	42.9412	86.2331	-43.3859	25.9988	78.0222	-116.871	-4.59971	26.9425	-93.8318	-6.2051	3.68298	-62.7845	-2.55458	-3.62906	-108.701	-38.1633	28.5901	-77.0383	-44.3856	9.69762	-41.2612	-36.8243	9.69581	-91.3376	-49.7692	53.3193	-56.901	-42.452	60.7395	-58.2545	-19.2435	86.2779	-83.8146	-61.6291	78.0148	-60.7651	-41.1409	92.1394	-79.9769	-16.3883	108.866	-144.508	-46.2688	86.0926	-167.455	-39.6462	111.093	-158.552	-7.76729	83.6082	
225	1.875	-144.975	27.4267	95.1063	-114.378	45.6805	86.8193	-83.8919	46.2742	77.4609	-54.5178	32.9064	65.5746	-121.806	-9.90208	21.142	-101.606	-4.55156	-2.2762	-73.677	-4.35883	-9.61407	-113.179	-37.3017	28.5604	-80.8851	-44.2845	7.4968	-46.776	-32.8899	3.98108	-85.3063	-48.7889	48.2134	-58.7803	-31.4349	51.5322	-59.8223	-10.9649	79.0598	-80.2326	-52.5715	73.7389	-60.2483	-30.3744	85.4598	-79.1657	-8.75923	104.306	-142.122	-49.2958	85.2728	-162.485	-43.1862	113.981	-161.003	-14.401	83.524	
